<svg xmlns="http://www.w3.org/2000/svg" xmlns:xlink="http://www.w3.org/1999/xlink" version="1.1" width="256" height="256" viewBox="0 0 256 256" xml:space="preserve">

<defs>
</defs>
<g style="stroke: none; stroke-width: 0; stroke-dasharray: none; stroke-linecap: butt; stroke-linejoin: miter; stroke-miterlimit: 10; fill: none; fill-rule: nonzero; opacity: 1;" transform="translate(1.4065934065934016 1.4065934065934016) scale(2.81 2.81)" >
	<path d="M 45 0 H 16.399 c -0.467 0 -0.871 0.323 -0.975 0.777 c -0.104 0.455 0.121 0.921 0.542 1.124 c 2.291 1.103 3.452 3.129 3.452 6.023 v 0.975 H 5.506 c -1.657 0 -3 1.343 -3 3 v 14.08 c 0 10.23 7.969 18.482 18.168 18.859 c 2.689 8.255 9.465 14.681 17.932 16.868 l -4.466 14.476 h -4.599 c -4.523 0 -8.458 2.903 -9.792 7.226 l -1.634 5.298 c -0.094 0.304 -0.038 0.633 0.151 0.889 S 18.752 90 19.07 90 H 45 C 48.636 60 48.636 30 45 0 z M 8.506 25.979 v -11.08 h 10.912 v 22.034 c 0 0.599 0.028 1.191 0.069 1.78 C 13.221 37.801 8.506 32.478 8.506 25.979 z" style="stroke: none; stroke-width: 1; stroke-dasharray: none; stroke-linecap: butt; stroke-linejoin: miter; stroke-miterlimit: 10; fill: rgb(239,175,30); fill-rule: nonzero; opacity: 1;" transform=" matrix(1 0 0 1 0 0) " stroke-linecap="round" />
	<path d="M 45 0 h 28.601 c 0.467 0 0.871 0.323 0.975 0.777 c 0.104 0.455 -0.121 0.921 -0.542 1.124 c -2.291 1.103 -3.452 3.129 -3.452 6.023 v 0.975 h 13.912 c 1.657 0 3 1.343 3 3 v 14.08 c 0 10.23 -7.969 18.482 -18.168 18.859 c -2.689 8.255 -9.465 14.681 -17.932 16.868 l 4.466 14.476 h 4.599 c 4.523 0 8.458 2.903 9.792 7.226 l 1.634 5.298 c 0.094 0.304 0.038 0.633 -0.151 0.889 S 71.248 90 70.93 90 H 45 V 0 z M 81.494 25.979 v -11.08 H 70.583 v 22.034 c 0 0.599 -0.028 1.191 -0.069 1.78 C 76.779 37.801 81.494 32.478 81.494 25.979 z" style="stroke: none; stroke-width: 1; stroke-dasharray: none; stroke-linecap: butt; stroke-linejoin: miter; stroke-miterlimit: 10; fill: rgb(255,187,34); fill-rule: nonzero; opacity: 1;" transform=" matrix(1 0 0 1 0 0) " stroke-linecap="round" />
</g>
</svg>